<svg width="52" height="52" viewBox="0 0 52 52" fill="none" xmlns="http://www.w3.org/2000/svg">
<circle cx="26" cy="26" r="26" fill="#FFBEB5"/>
<path d="M27.1427 12.9165H24.863V21.2289H27.1427V12.9165Z" fill="#FD725C"/>
<path d="M36.8849 28.2195C36.6887 27.4731 36.1808 26.8578 35.5171 26.4134C34.8534 25.969 34.4032 25.3594 34.1723 24.653C33.878 23.7528 33.2316 23.166 31.9677 22.545C30.4902 21.8157 30.0631 22.1689 29.6591 21.2859C29.4398 20.8073 29.0127 19.7533 27.0678 19.1494C26.381 18.9329 25.625 18.9329 24.9382 19.1494C22.9932 19.7533 22.5604 20.8073 22.3468 21.2859C21.9428 22.1689 21.5157 21.8157 20.0383 22.545C18.7801 23.166 18.1337 23.7528 17.8336 24.653C17.6028 25.3594 17.1353 25.9804 16.4889 26.4134C15.8425 26.8464 15.3115 27.4731 15.1211 28.2195C14.5151 30.544 16.1541 31.5866 16.2869 31.7404C16.4716 31.9512 17.2218 34.3156 17.5508 35.5975C17.874 36.8566 18.5839 37.8023 19.8824 38.1499C20.0383 38.1898 23.0856 38.2183 26.0059 38.2353C28.9262 38.2183 31.9735 38.1898 32.1293 38.1499C33.4278 37.8023 34.1319 36.8566 34.4609 35.5975C34.7899 34.3213 35.5402 31.9569 35.7248 31.7404C35.8576 31.5866 37.4967 30.5497 36.8907 28.2195H36.8849Z" fill="#FD725C"/>
<path d="M26 35.774C32.7574 35.774 38.2353 32.5193 38.2353 28.5043C38.2353 24.4893 32.7574 21.2345 26 21.2345C19.2426 21.2345 13.7647 24.4893 13.7647 28.5043C13.7647 32.5193 19.2426 35.774 26 35.774Z" fill="#FD725C"/>
<path d="M26 26.6357C29.8441 26.6357 32.9603 24.7838 32.9603 22.4994C32.9603 20.215 29.8441 18.3632 26 18.3632C22.156 18.3632 19.0398 20.215 19.0398 22.4994C19.0398 24.7838 22.156 26.6357 26 26.6357Z" fill="#FD725C"/>
<path d="M28.5451 14.694C28.5451 16.6197 27.2985 17.6908 25.9826 17.6908C24.8341 17.6908 23.4606 16.6425 23.4606 14.7168C23.4606 12.7911 25.9826 10.7059 25.9826 10.7059C25.9826 10.7059 28.5451 12.7627 28.5451 14.694Z" fill="#FD725C"/>
</svg>
