<svg width="243" height="59" viewBox="0 0 243 59" fill="none" xmlns="http://www.w3.org/2000/svg">
<g clip-path="url(#clip0_160_2088)">
<path d="M223.293 22.9509C223.761 23.2613 226.598 21.3296 227.494 21.094C229.655 20.5203 232.958 21.058 234.414 22.8206C238.436 27.693 232.767 35.1456 231.265 39.9957C230.509 42.4402 230.529 45.5083 234.143 44.4495C235.321 44.1059 237.913 40.9436 236.5 45.0787C235.236 48.7786 230.874 51.6804 226.898 51.6749C217.37 51.6666 222.767 42.8337 224.429 38.0695C225.134 36.0463 228.188 28.1198 224.009 27.984C220.018 27.8537 217.664 35.7054 216.799 38.6986C216.028 41.3704 215.303 47.3984 214.107 49.3884C212.771 51.6084 208.081 52.1876 206.057 50.6356C205.144 49.9344 205.192 48.8285 204.267 48.2327C200.422 49.4743 197.702 53.1632 193.215 50.6356C192.099 50.0064 191.633 48.2825 190.88 48.1689C189.193 47.9167 187.043 50.2309 185.314 50.8074C179.288 52.8167 173.699 48.9671 174.889 42.6259C175.26 40.6442 178.982 33.0863 178.06 31.8114C175.974 30.9024 174.763 32.1884 173.673 33.6822C171.889 36.1295 170.781 39.5135 168.997 42.1686C165.874 46.8164 159.666 53.1438 153.289 51.1511C150.82 50.3806 151.151 48.9228 150.092 48.1578C148.591 47.0769 146.61 49.1777 145.451 49.793C141.848 51.7081 138.683 52.3678 135.66 49.1445C135.057 48.5015 134.889 47.3319 133.799 47.3735C132.828 47.4123 129.751 50.0231 128.224 50.5275C124.93 51.6111 121.544 50.8767 120.183 47.5425C118.855 44.2916 121.701 40.866 122.943 37.9171C123.645 36.2431 126.037 30.4589 125.618 28.9845C125.058 27.025 122.558 28.0865 121.547 29.3559C119.909 31.4096 118.364 35.8246 116.866 38.391C113.997 43.3021 106.461 53.7729 99.5789 50.6466C97.8862 49.8762 97.655 47.8862 95.8395 47.8779C94.2638 47.8696 91.9431 50.1062 90.2105 50.7575C87.5644 51.7525 84.5928 51.5224 82.7003 49.2969C81.8696 48.3213 81.3159 45.7993 80.1284 45.6856C78.4614 45.5249 75.7382 48.2437 74.2624 49.1306C68.5905 52.5396 60.5951 52.8971 56.9271 46.6058C52.2514 38.5822 61.774 21.3046 71.3166 20.221C84.4187 18.7327 83.197 35.262 71.8704 38.7735C69.2357 39.5911 65.4906 38.3965 65.1395 41.6642C64.7427 45.3669 68.4478 46.0071 71.3708 45.2172C84.296 41.7224 84.4444 19.1567 98.6626 21.0469C101.426 21.4127 101.072 23.7269 102.119 23.8128C102.904 23.8766 104.363 22.4659 105.199 22.0806C107.129 21.1882 112.139 20.329 111.553 23.5246C110.175 28.7434 106.198 35.4532 105.468 40.6332C105.157 42.831 105.388 44.4745 108.077 43.4435C112.122 41.8914 115.176 33.3884 116.318 29.5499C116.997 27.2578 117.733 21.3517 118.681 19.9272C119.386 18.8712 121.236 17.6379 122.526 18.3862C123.394 18.8879 123.106 22.6294 126.443 23.1726C129.771 23.7131 132.463 20.7309 135.665 22.2691C135.991 22.4825 135.888 22.671 135.831 22.9703C135.623 24.0789 134.15 26.7202 133.65 28.0837C132.377 31.5537 129.974 37.7452 129.443 41.1819C129.014 43.9507 130.045 45.378 132.654 43.4712C136.622 40.5694 138.625 29.8353 141.215 25.1764C143.09 21.8007 146.373 20.2043 149.861 22.5435C147.783 27.0333 145.887 31.7532 144.64 36.5396C144.069 38.7347 141.84 45.5609 146.515 43.3492C150.423 41.5006 152.35 32.363 153.789 28.5161C154.785 25.8499 155.815 22.0557 159.226 21.6012C165.338 20.7863 162.166 24.5667 161.139 27.6154C159.854 31.4234 157.265 39.6881 159.786 43.183C161.262 45.2283 164.379 43.9701 165.626 42.2268C168.926 37.6205 165.452 28.3554 168.321 23.2253C170.239 19.7969 173.082 22.0668 174.124 24.8244C174.826 26.6897 174.798 30.3841 177.88 28.347C180.963 26.31 181.172 21.1411 185.753 21.2824C189.079 21.385 190.925 22.4409 194.679 21.3767C199.886 19.8995 198.093 15.6175 201.687 14.046C203.186 13.3919 204.898 13.1397 206.44 13.6885C210.53 15.1408 205.835 18.1257 206.143 20.8418L209.306 21.7093C210.33 24.3173 208.469 23.7408 207.088 24.2785C204.616 25.2402 201.456 34.2919 200.925 36.8639C200.274 40.0068 199.48 47.3873 204.736 43.0582C207.898 40.453 209.428 33.4549 210.878 29.6219C211.715 27.4075 213.136 25.0101 213.878 22.8345C215.942 16.7871 215.643 8.27296 223.843 6.45762C225.245 6.14721 228.924 5.58182 228.297 7.72697C227.606 10.0828 225.291 13.2367 224.349 16.0942C223.998 17.1612 222.388 22.3495 223.301 22.9564L223.293 22.9509ZM192.373 23.5773C189.447 24.1537 187.337 30.9412 186.598 33.491C185.87 36.002 182.739 48.3601 189.159 43.183C193.212 39.9153 194.331 29.5637 196.966 24.9602C197.502 23.0202 193.603 23.3306 192.37 23.5745L192.373 23.5773ZM73.0692 24.6692C70.6915 24.9602 68.1138 28.4995 67.4088 30.567C65.3107 36.7198 70.7799 34.5691 73.2776 31.5537C74.2196 30.4174 74.9646 28.9762 75.1045 27.4962C75.2301 26.1853 74.7049 24.4669 73.0664 24.6692H73.0692ZM100.738 26.0883C99.9529 25.1875 98.3229 25.351 97.2839 25.7584C93.8185 27.1193 88.4121 38.3965 88.8289 41.9496C89.2713 45.7023 94.1611 42.673 95.6968 41.1265C98.1317 38.6765 103.373 29.112 100.735 26.0883H100.738Z" fill="#F54129"/>
<path d="M5.57771 50.8573C4.78987 50.0951 4.28177 48.3269 4.35884 47.2515C4.63287 43.4185 9.11728 42.3321 12.4399 42.673C13.5731 42.7894 15.674 43.8454 16.342 43.0693C16.6417 42.7229 18.0005 39.7491 18.2574 39.1088C21.6685 30.6252 22.5048 22.6377 28.368 14.8359C30.0093 12.652 32.0902 11.0279 33.703 8.9215C33.7972 7.9487 30.6915 8.212 29.9151 8.30069C24.8227 8.88825 16.8244 16.1191 16.6046 21.1716C16.5161 23.1782 18.0775 23.3916 18.0376 24.4503C18.0233 24.8383 16.2878 29.0704 16.0166 29.4446C14.8006 31.1269 11.4836 26.9862 10.8557 25.9137C7.97262 20.9887 9.77095 15.6369 13.3248 11.5905C25.1138 -1.81257 54.3153 4.33188 55.7311 22.8096C57.1469 41.2872 39.7688 59.0554 21.3231 49.272C20.3097 49.272 18.5086 50.824 17.4324 51.3312C13.9442 52.9775 8.60061 53.7757 5.57771 50.8573ZM39.6603 11.3771C36.823 11.6071 34.4223 16.7233 33.526 19.0098C30.7943 25.9829 29.7067 33.3136 26.7352 40.4087C25.4792 43.4047 23.0986 45.1729 28.4907 45.6496C42.3635 46.8718 47.4103 25.6808 43.9364 15.6895C43.3797 14.0932 41.6699 11.2135 39.6575 11.3771H39.6603Z" fill="#F54129"/>
<path d="M192.373 23.5773C193.606 23.3334 197.502 23.023 196.968 24.963C194.334 29.5665 193.215 39.9181 189.161 43.1857C182.742 48.3629 185.87 36.002 186.601 33.4937C187.34 30.9439 189.45 24.1565 192.376 23.58L192.373 23.5773Z" fill="#FFDB92"/>
<path d="M100.738 26.0883C103.375 29.112 98.1345 38.6765 95.6997 41.1265C94.1639 42.673 89.2714 45.7023 88.8318 41.9496C88.415 38.3966 93.8214 27.1193 97.2868 25.7584C98.3258 25.351 99.9557 25.1875 100.741 26.0883H100.738Z" fill="#FFDB92"/>
<path d="M73.0693 24.6693C74.7078 24.4697 75.233 26.1853 75.1074 27.4962C74.9675 28.9734 74.2225 30.4174 73.2805 31.5537C70.78 34.5691 65.3136 36.717 67.4117 30.567C68.1167 28.5023 70.6944 24.9603 73.0721 24.6693H73.0693Z" fill="#FFDB92"/>
<path d="M39.6603 11.3771C41.6727 11.2135 43.3825 14.0932 43.9392 15.6895C47.4131 25.6809 42.3663 46.8719 28.4935 45.6496C23.1014 45.1757 25.482 43.4075 26.738 40.4087C29.7095 33.3136 30.7942 25.983 33.5288 19.0098C34.4251 16.7233 36.8229 11.6071 39.6631 11.3771H39.6603Z" fill="#FFDB92"/>
<path d="M242.969 42.7781C242.766 39.8043 241.148 38.2245 239.66 35.8521C243.168 27.6457 241.83 16.2159 230.417 16.3074C231.636 12.7626 236.081 9.68901 234.554 5.50126C233.403 2.35004 228.185 1.39387 225.14 1.62391C221.46 1.90106 216.847 4.32891 214.29 6.88701C213.593 7.58544 211.498 10.8586 211.038 10.9168C206.28 8.66633 201.83 8.28663 197.185 11.0581C196.092 6.18028 188.865 4.73909 188.865 4.73909C188.865 4.73909 189.324 6.54612 186.764 8.52498C184.994 9.89411 183.709 10.8974 182.688 12.333C180.627 15.2293 180.983 17.7181 177.424 20.1709C175.083 18.3666 173.998 16.5568 170.613 16.5679C168.406 16.5762 166.266 18.4886 165.478 18.5163C164.821 18.5385 163.876 17.6516 163.2 17.4077C160.742 16.5291 156.897 16.5901 154.482 17.5573C153.76 17.8484 152.812 18.7879 152.053 18.7851C151.488 18.7851 149.064 17.1361 147.706 16.931C143.51 16.2963 140.963 17.5435 137.547 19.575C135.52 18.0424 132.172 18.3472 130.142 17.355C129.006 16.8007 128.384 15.4205 127.522 14.6334C123.208 10.7034 117.442 13.1201 114.608 17.3855C112.29 16.5651 110.34 16.033 107.811 16.3074C106.584 16.4404 103.424 17.9564 103.004 17.9149C102.59 17.8761 100.835 16.6483 99.7417 16.385C94.9062 15.2126 89.8452 17.5407 86.2913 20.6337C85.9431 20.9358 84.8042 22.7872 84.2675 22.4047C80.1314 13.7188 68.1596 14.7276 61.5743 20.1875C60.815 18.5052 60.4725 16.8368 59.6304 15.1434C52.7454 1.24144 31.5022 -3.67523 17.7436 2.85446C6.0516 8.40303 -0.647892 23.117 10.4846 32.651C12.2344 34.1504 14.852 34.5301 12.851 37.4596C12.3315 38.219 8.62635 38.2689 7.25619 38.6791C3.75944 39.7239 0.522449 43.0719 0.0885664 46.686C-1.03039 55.9733 8.64062 60.4576 16.9015 58.5758C18.6684 58.1739 21.8826 56.2477 23.0415 56.1978C24.1805 56.1479 25.6648 56.9988 26.8323 57.2427C36.4348 59.2548 45.3037 55.8514 51.5807 48.7397C55.8739 56.8075 66.524 59.7259 74.9476 56.1784C76.6232 55.4717 77.902 54.2771 79.5405 53.709C82.6205 56.3447 86.1172 57.8524 90.3333 57.2593C92.0317 57.0209 93.9414 55.6407 95.5399 55.6407C97.1384 55.6407 98.9453 57.0154 100.752 57.2537C105.394 57.8635 109.658 56.292 112.952 53.1658C113.46 52.6835 114.962 50.397 115.521 50.3915C118.062 55.807 123.109 58.0991 129.157 57.2565C130.582 57.057 133.453 55.4273 134.315 55.4523C135.237 55.48 137.01 56.7327 138.06 57.0597C140.25 57.7415 142.665 57.7997 144.894 57.2925C146.199 56.996 148.348 55.7017 149.493 55.6962C150.477 55.6934 152.752 57.0653 154.128 57.2565C158.678 57.8912 163.043 56.4306 166.48 53.5843C167.196 52.9912 169.879 49.7374 170.319 49.8399C173.359 54.9118 178.377 57.9245 184.566 57.2898C186.421 57.0985 189.287 55.6546 190.594 55.6546C191.953 55.6546 194.125 57.1346 196.021 57.3203C196.997 57.4145 198.704 57.4145 199.66 57.2565C200.985 57.0403 202.275 55.9567 203.719 55.9096C205.775 55.8458 207.907 57.6002 211.144 57.3175C214.047 57.0653 216.145 55.455 218.554 54.2577C220.826 56.2255 223.498 57.5669 226.595 57.8413C235.247 58.6035 243.554 51.3227 242.969 42.7754V42.7781ZM21.3231 49.2718C20.3098 49.2718 18.5086 50.8238 17.4325 51.331C13.9443 52.9773 8.60066 53.7755 5.57775 50.8571C4.78991 50.0949 4.28181 48.3267 4.35889 47.2514C4.63292 43.4183 9.11732 42.3319 12.44 42.6728C13.5732 42.7892 15.6741 43.8452 16.342 43.0691C16.6418 42.7227 18.0005 39.7489 18.2574 39.1086C21.6685 30.625 22.5049 22.6375 28.368 14.8357C30.0093 12.6518 32.0903 11.0277 33.7031 8.92131C33.7973 7.9485 30.6916 8.2118 29.9151 8.30049C24.8227 8.88805 16.8244 16.1189 16.6047 21.1714C16.5162 23.178 18.0776 23.3914 18.0376 24.4501C18.0233 24.8381 16.2878 29.0702 16.0166 29.4444C14.8006 31.1267 11.4837 26.986 10.8557 25.9135C7.97267 20.9885 9.771 15.6367 13.3248 11.5903C25.1139 -1.81277 54.3153 4.33168 55.7312 22.8094C57.0842 40.4473 39.7688 59.0552 21.3231 49.2718ZM236.498 45.0785C235.233 48.7785 230.871 51.6802 226.895 51.6747C217.367 51.6664 222.765 42.8336 224.426 38.0693C225.131 36.0461 228.185 28.1196 224.006 27.9838C220.016 27.8535 217.661 35.7052 216.796 38.6985C216.025 41.3702 215.3 47.3982 214.104 49.3882C212.768 51.6082 208.078 52.1874 206.054 50.6354C205.141 49.9342 205.189 48.8283 204.265 48.2325C200.42 49.4741 197.699 53.163 193.212 50.6354C192.096 50.0062 191.631 48.2824 190.877 48.1687C189.19 47.9165 187.041 50.2307 185.311 50.8072C179.285 52.8166 173.696 48.9669 174.886 42.6257C175.257 40.6441 178.98 33.0861 178.058 31.8112C175.971 30.9022 174.761 32.1882 173.67 33.682C171.886 36.1293 170.779 39.5133 168.995 42.1684C165.872 46.8162 159.663 53.1436 153.286 51.1509C150.817 50.3804 151.148 48.9226 150.089 48.1576C148.588 47.0767 146.607 49.1776 145.448 49.7928C141.845 51.7079 138.68 52.3676 135.657 49.1443C135.055 48.5013 134.886 47.3317 133.796 47.3733C132.825 47.4121 129.748 50.0229 128.221 50.5273C124.927 51.6109 121.541 50.8765 120.18 47.5424C118.853 44.2914 121.698 40.8658 122.94 37.9169C123.642 36.2429 126.034 30.4587 125.615 28.9843C125.055 27.0248 122.555 28.0863 121.544 29.3557C119.906 31.4094 118.362 35.8244 116.863 38.3908C113.994 43.3019 106.458 53.7727 99.5761 50.6465C97.8834 49.876 97.6522 47.886 95.8368 47.8777C94.2611 47.8694 91.9404 50.106 90.2077 50.7573C87.5616 51.7523 84.5901 51.5223 82.6975 49.2967C81.8669 48.3212 81.3131 45.7991 80.1257 45.6854C78.4586 45.5247 75.7354 48.2436 74.2597 49.1304C68.5878 52.5394 60.5924 52.8969 56.9243 46.6056C52.2487 38.5821 61.7713 21.3044 71.3138 20.2208C84.416 18.7325 83.1942 35.2618 71.8676 38.7733C69.2329 39.5909 65.4878 38.3964 65.1367 41.664C64.7399 45.3667 68.4451 46.0069 71.3681 45.2171C84.2932 41.7222 84.4416 19.1565 98.6599 21.0467C101.423 21.4125 101.069 23.7267 102.117 23.8127C102.902 23.8764 104.36 22.4657 105.197 22.0805C107.126 21.188 112.136 20.3289 111.551 23.5244C110.172 28.7432 106.196 35.453 105.465 40.633C105.154 42.8308 105.385 44.4743 108.074 43.4433C112.119 41.8912 115.173 33.3882 116.315 29.5497C116.994 27.2576 117.731 21.3515 118.678 19.927C119.383 18.871 121.233 17.6377 122.523 18.386C123.391 18.8877 123.103 22.6292 126.44 23.1724C129.768 23.7129 132.46 20.7307 135.663 22.2689C135.988 22.4823 135.885 22.6708 135.828 22.9701C135.62 24.0787 134.147 26.72 133.647 28.0836C132.374 31.5535 129.971 37.7451 129.44 41.1817C129.012 43.9505 130.042 45.3778 132.651 43.471C136.619 40.5692 138.623 29.8351 141.212 25.1762C143.087 21.8005 146.37 20.2041 149.858 22.5433C147.78 27.0332 145.885 31.753 144.637 36.5394C144.066 38.7345 141.837 45.5607 146.513 43.3491C150.42 41.5005 152.347 32.3628 153.786 28.5159C154.782 25.8497 155.812 22.0555 159.224 21.601C165.335 20.7862 162.164 24.5665 161.136 27.6152C159.852 31.4232 157.263 39.6879 159.783 43.1828C161.259 45.2281 164.376 43.9699 165.623 42.2266C168.923 37.6203 165.449 28.3552 168.318 23.2251C170.236 19.7967 173.079 22.0666 174.121 24.8243C174.823 26.6895 174.795 30.3839 177.878 28.3468C180.892 26.3541 181.169 21.1409 185.75 21.2823C189.076 21.3848 190.923 22.4408 194.676 21.3765C199.883 19.8993 198.09 15.6173 201.684 14.0458C203.183 13.3918 204.895 13.1396 206.437 13.6883C210.527 15.1406 205.832 18.1255 206.14 20.8416L209.303 21.7091C210.328 24.3171 208.466 23.7406 207.085 24.2783C204.613 25.24 201.453 34.2917 200.922 36.8637C200.271 40.0066 199.478 47.3872 204.733 43.0581C207.896 40.4528 209.426 33.4548 210.876 29.6217C211.712 27.4073 213.134 25.0099 213.876 22.8343C215.939 16.7869 215.64 8.27277 223.841 6.45743C225.242 6.14702 228.922 5.58163 228.294 7.72678C227.603 10.0826 225.288 13.2366 224.346 16.094C223.995 17.161 222.385 22.3493 223.298 22.9563C223.766 23.2667 226.604 21.3349 227.5 21.0993C229.661 20.5256 232.964 21.0633 234.419 22.826C238.441 27.6983 232.772 35.1509 231.271 40.0011C230.515 42.4455 230.535 45.5136 234.148 44.4549C235.327 44.1112 237.919 40.9489 236.506 45.084L236.498 45.0785Z" fill="#FFDB92"/>
<path d="M190.691 9.00189C190.691 9.00189 193.731 10.5484 194.025 13.2839C194.631 18.9516 186.735 20.0685 185.907 15.8475C185.413 13.3255 187.748 12.3776 188.924 11.4602C190.557 10.1826 190.694 9.00189 190.694 9.00189H190.691Z" fill="#F54129"/>
</g>
<defs>
<clipPath id="clip0_160_2088">
<rect width="243" height="59" fill="white"/>
</clipPath>
</defs>
</svg>
