<svg width="86" height="20" viewBox="0 0 86 20" fill="none" xmlns="http://www.w3.org/2000/svg">
<g clip-path="url(#clip0_268_7397)">
<path d="M79.0254 7.77999C79.1911 7.88522 80.1952 7.23039 80.5125 7.15053C81.2772 6.95606 82.446 7.13832 82.9613 7.73584C84.3847 9.38747 82.3784 11.9138 81.847 13.5579C81.5793 14.3865 81.5863 15.4266 82.8653 15.0677C83.2825 14.9512 84.1998 13.8792 83.6997 15.2809C83.2522 16.5352 81.7086 17.5188 80.3013 17.5169C76.9292 17.5141 78.8395 14.5199 79.4275 12.9049C79.677 12.2191 80.7579 9.53215 79.279 9.48612C77.8667 9.44196 77.0332 12.1036 76.7271 13.1182C76.4544 14.0239 76.1978 16.0673 75.7745 16.7418C75.3017 17.4944 73.6419 17.6907 72.9256 17.1646C72.6023 16.9269 72.6195 16.5521 72.2922 16.3501C70.9314 16.771 69.9687 18.0214 68.3806 17.1646C67.9856 16.9514 67.8209 16.367 67.5542 16.3285C66.9572 16.243 66.1965 17.0275 65.5843 17.2229C63.4517 17.904 61.4736 16.599 61.8949 14.4495C62.0262 13.7777 63.3436 11.2157 63.0173 10.7836C62.2788 10.4754 61.8504 10.9113 61.4645 11.4177C60.8331 12.2473 60.4412 13.3944 59.8098 14.2945C58.7046 15.87 56.5073 18.0149 54.2505 17.3394C53.3766 17.0782 53.4938 16.584 53.119 16.3247C52.5876 15.9583 51.8865 16.6704 51.4764 16.879C50.2015 17.5282 49.0811 17.7518 48.0113 16.6592C47.7981 16.4412 47.7385 16.0447 47.3526 16.0588C47.0091 16.072 45.9201 16.957 45.3796 17.128C44.2138 17.4953 43.0157 17.2464 42.5338 16.1161C42.064 15.0141 43.0713 13.8529 43.5107 12.8533C43.7592 12.2858 44.6058 10.3251 44.4573 9.82528C44.2593 9.16105 43.3743 9.52088 43.0167 9.95117C42.4368 10.6473 41.8903 12.144 41.3599 13.0139C40.3446 14.6787 37.6776 18.2281 35.242 17.1684C34.6429 16.9072 34.5611 16.2326 33.9186 16.2298C33.3609 16.227 32.5396 16.9852 31.9264 17.206C30.9899 17.5432 29.9382 17.4653 29.2685 16.7108C28.9745 16.3801 28.7785 15.5252 28.3582 15.4867C27.7683 15.4322 26.8045 16.3538 26.2822 16.6545C24.2749 17.8101 21.4452 17.9313 20.1471 15.7986C18.4923 13.0788 21.8624 7.22193 25.2397 6.85459C29.8766 6.35008 29.4442 11.9532 25.4356 13.1436C24.5032 13.4207 23.1778 13.0158 23.0535 14.1235C22.9131 15.3786 24.2244 15.5957 25.2588 15.3279C29.8332 14.1432 29.8857 6.49382 34.9177 7.13456C35.8956 7.25857 35.7703 8.04305 36.1411 8.07218C36.4189 8.09379 36.9351 7.61558 37.2311 7.48499C37.914 7.18247 39.687 6.89123 39.4799 7.97447C38.9919 9.74354 37.5847 12.0181 37.3261 13.774C37.216 14.519 37.2978 15.0761 38.2494 14.7266C39.6809 14.2005 40.7619 11.3181 41.166 10.0169C41.4064 9.23997 41.667 7.2379 42.0024 6.755C42.252 6.39706 42.9066 5.97898 43.3632 6.23264C43.6703 6.40269 43.5683 7.67101 44.7492 7.85515C45.9272 8.03836 46.8798 7.02746 48.0133 7.54888C48.1285 7.62122 48.0921 7.6851 48.0719 7.78657C47.9981 8.16237 47.4769 9.05771 47.3001 9.51994C46.8495 10.6962 45.9989 12.795 45.811 13.96C45.6595 14.8986 46.0242 15.3824 46.9475 14.736C48.3517 13.7524 49.0609 10.1137 49.9772 8.53441C50.6409 7.3901 51.8027 6.84895 53.0372 7.64189C52.3017 9.16387 51.6309 10.7638 51.1895 12.3863C50.9874 13.1304 50.1984 15.4444 51.8532 14.6947C53.2362 14.068 53.9181 10.9705 54.4273 9.6665C54.7798 8.76271 55.1445 7.47654 56.3518 7.32246C58.5147 7.04625 57.3923 8.32772 57.0286 9.36117C56.574 10.652 55.6577 13.4536 56.5498 14.6383C57.0721 15.3317 58.1752 14.9051 58.6167 14.3142C59.7845 12.7527 58.5551 9.61201 59.5704 7.873C60.2492 6.71085 61.2554 7.48029 61.6242 8.41509C61.8727 9.04737 61.8626 10.2997 62.9536 9.60919C64.0447 8.91866 64.1184 7.1665 65.7398 7.21442C66.9168 7.24918 67.5704 7.60713 68.8988 7.24636C70.7415 6.74561 70.1071 5.29409 71.3789 4.76139C71.9093 4.53967 72.5155 4.45418 73.061 4.6402C74.5087 5.13249 72.8468 6.14433 72.9559 7.06504L74.0753 7.3591C74.4379 8.24317 73.7793 8.04775 73.2903 8.23001C72.4154 8.55602 71.2971 11.6244 71.1092 12.4963C70.8789 13.5617 70.598 16.0635 72.4579 14.596C73.5772 13.7129 74.1187 11.3407 74.6319 10.0414C74.9279 9.2907 75.431 8.47804 75.6937 7.74053C76.424 5.69055 76.318 2.80442 79.2204 2.18905C79.7164 2.08383 81.0186 1.89217 80.7963 2.61934C80.5519 3.41791 79.7326 4.48706 79.3992 5.45568C79.2749 5.81739 78.7052 7.57612 79.0284 7.78187L79.0254 7.77999ZM68.0826 7.99232C67.0471 8.18774 66.3005 10.4886 66.0389 11.3529C65.7813 12.2041 64.673 16.3933 66.945 14.6383C68.3796 13.5307 68.7756 10.0216 69.708 8.46113C69.8979 7.80348 68.518 7.9087 68.0816 7.99138L68.0826 7.99232ZM25.8599 8.36248C25.0184 8.46113 24.1062 9.66087 23.8566 10.3617C23.1141 12.4474 25.0497 11.7184 25.9337 10.6962C26.2671 10.311 26.5307 9.82246 26.5802 9.32077C26.6247 8.87639 26.4388 8.2939 25.8589 8.36248H25.8599ZM35.6521 8.8435C35.3743 8.53817 34.7975 8.5936 34.4297 8.7317C33.2033 9.193 31.2899 13.0158 31.4374 14.2202C31.594 15.4923 33.3245 14.4655 33.868 13.9412C34.7298 13.1107 36.5846 9.86849 35.6511 8.8435H35.6521Z" fill="#FFDB92"/>
<path d="M1.97401 17.2398C1.69519 16.9814 1.51537 16.382 1.54264 16.0175C1.63963 14.7182 3.2267 14.3499 4.40261 14.4655C4.80367 14.5049 5.5472 14.8629 5.7836 14.5998C5.88967 14.4824 6.37054 13.4743 6.46146 13.2573C7.66869 10.3815 7.96468 7.67383 10.0397 5.02915C10.6206 4.28883 11.357 3.73828 11.9278 3.02427C11.9612 2.6945 10.862 2.78376 10.5872 2.81382C8.78499 3.01299 5.95432 5.46414 5.87654 7.17684C5.84522 7.85704 6.39782 7.92938 6.38367 8.28827C6.37862 8.4198 5.7644 9.85441 5.66843 9.98124C5.23807 10.5515 4.06418 9.1479 3.84193 8.78432C2.8216 7.11483 3.45804 5.30067 4.71578 3.929C8.88804 -0.614402 19.2227 1.46846 19.7238 7.73208C20.2249 13.9957 14.0746 20.0188 7.54645 16.7024C7.18782 16.7024 6.55036 17.2285 6.1695 17.4004C4.935 17.9585 3.04385 18.2291 1.97401 17.2398ZM14.0362 3.85666C13.032 3.93464 12.1824 5.66895 11.8652 6.44403C10.8984 8.80781 10.5135 11.2928 9.46185 13.6979C9.01735 14.7135 8.17481 15.3129 10.0831 15.4745C14.9929 15.8888 16.779 8.7054 15.5495 5.31852C15.3525 4.77737 14.7474 3.80123 14.0352 3.85666H14.0362Z" fill="#FFDB92"/>
<path d="M68.0825 7.99234C68.519 7.90967 69.8979 7.80444 69.709 8.46209C68.7766 10.0226 68.3805 13.5316 66.946 14.6393C64.674 16.3943 65.7812 12.2041 66.0398 11.3539C66.3015 10.4895 67.0481 8.1887 68.0835 7.99328L68.0825 7.99234Z" fill="#F54129"/>
<path d="M35.6521 8.84348C36.5855 9.86847 34.7308 13.1107 33.869 13.9412C33.3255 14.4654 31.594 15.4923 31.4384 14.2202C31.2909 13.0158 33.2043 9.19297 34.4307 8.73168C34.7984 8.59357 35.3753 8.53814 35.6531 8.84348H35.6521Z" fill="#F54129"/>
<path d="M25.8599 8.36246C26.4398 8.29481 26.6256 8.87636 26.5812 9.32074C26.5317 9.8215 26.268 10.311 25.9346 10.6962C25.0497 11.7183 23.1151 12.4464 23.8576 10.3617C24.1071 9.66178 25.0194 8.46111 25.8609 8.36246H25.8599Z" fill="#F54129"/>
<path d="M14.0362 3.85663C14.7484 3.8012 15.3535 4.77734 15.5505 5.31849C16.78 8.70537 14.9939 15.8888 10.0842 15.4744C8.17582 15.3138 9.01836 14.7144 9.46286 13.6979C10.5145 11.2927 10.8984 8.80778 11.8662 6.44401C12.1834 5.66892 13.032 3.93461 14.0372 3.85663H14.0362Z" fill="#F54129"/>
<path d="M85.9889 14.5011C85.9171 13.4931 85.3443 12.9575 84.818 12.1533C86.0596 9.37149 85.5858 5.497 81.5469 5.52801C81.9783 4.32639 83.5512 3.28449 83.0107 1.86491C82.6036 0.796702 80.7569 0.472575 79.679 0.550554C78.3768 0.644503 76.7442 1.4675 75.8391 2.33466C75.5926 2.57141 74.8511 3.68096 74.6884 3.70069C73.0044 2.93781 71.4294 2.8091 69.7858 3.7486C69.3988 2.09509 66.841 1.60655 66.841 1.60655C66.841 1.60655 67.0036 2.2191 66.0974 2.8899C65.4711 3.35401 65.0165 3.69411 64.6548 4.18077C63.9254 5.16254 64.0517 6.00621 62.7919 6.83766C61.9635 6.22605 61.5797 5.61256 60.3815 5.61632C59.6006 5.61914 58.8429 6.26739 58.5641 6.27678C58.3318 6.2843 57.9974 5.98366 57.758 5.90099C56.8881 5.60317 55.5274 5.62383 54.6727 5.95172C54.4171 6.05037 54.0817 6.36885 53.813 6.36792C53.613 6.36792 52.7553 5.80892 52.2744 5.73939C50.7894 5.52425 49.8883 5.94702 48.679 6.63567C47.9617 6.11613 46.7767 6.21947 46.0585 5.88314C45.6564 5.69524 45.4362 5.22737 45.1311 4.96055C43.6046 3.62834 41.5639 4.44759 40.5608 5.89347C39.7405 5.61538 39.0505 5.435 38.1554 5.52801C37.721 5.5731 36.6027 6.08701 36.4542 6.07291C36.3077 6.05976 35.6864 5.64356 35.2995 5.55431C33.5882 5.1569 31.797 5.94608 30.5393 6.99456C30.416 7.09696 30.013 7.72455 29.823 7.5949C28.3592 4.65052 24.1223 4.99249 21.7917 6.8433C21.523 6.27303 21.4017 5.70745 21.1037 5.13342C18.667 0.420903 11.1489 -1.24576 6.27959 0.96769C2.14168 2.84856 -0.229331 7.83635 3.71057 11.0682C4.32984 11.5765 5.25623 11.7052 4.54805 12.6982C4.36419 12.9557 3.05291 12.9726 2.568 13.1116C1.33047 13.4658 0.184864 14.6007 0.0313088 15.8258C-0.364702 18.9741 3.05796 20.4942 5.98157 19.8563C6.60691 19.72 7.74443 19.0671 8.15458 19.0502C8.55766 19.0333 9.08298 19.3217 9.49617 19.4044C12.8946 20.0864 16.0334 18.9327 18.2549 16.522C19.7743 19.2569 23.5434 20.2462 26.5246 19.0436C27.1176 18.804 27.5702 18.3991 28.1501 18.2065C29.2401 19.1 30.4777 19.6111 31.9698 19.41C32.5709 19.3292 33.2467 18.8613 33.8124 18.8613C34.3782 18.8613 35.0176 19.3273 35.6571 19.4081C37.2998 19.6148 38.809 19.0821 39.9749 18.0224C40.1547 17.8589 40.6861 17.0838 40.8841 17.0819C41.7832 18.9177 43.5693 19.6947 45.7099 19.4091C46.214 19.3414 47.2303 18.789 47.5354 18.7975C47.8617 18.8068 48.4891 19.2315 48.8608 19.3424C49.6357 19.5735 50.4903 19.5932 51.2793 19.4213C51.741 19.3208 52.5017 18.882 52.9068 18.8801C53.2554 18.8792 54.0605 19.3442 54.5474 19.4091C56.1577 19.6242 57.7024 19.1291 58.9187 18.1642C59.1723 17.9632 60.1219 16.8602 60.2775 16.895C61.3534 18.6143 63.1294 19.6355 65.3195 19.4203C65.9762 19.3555 66.9905 18.866 67.4531 18.866C67.934 18.866 68.7028 19.3677 69.3736 19.4307C69.7191 19.4626 70.3232 19.4626 70.6616 19.4091C71.1304 19.3358 71.587 18.9684 72.0982 18.9525C72.8256 18.9309 73.5802 19.5256 74.7258 19.4297C75.7532 19.3442 76.4957 18.7984 77.3484 18.3925C78.1525 19.0596 79.0981 19.5143 80.1942 19.6073C83.2562 19.8657 86.196 17.3976 85.9889 14.5002V14.5011ZM7.54642 16.7024C7.18779 16.7024 6.55033 17.2285 6.16948 17.4004C4.93497 17.9585 3.04382 18.2291 1.97398 17.2398C1.69516 16.9814 1.51534 16.382 1.54262 16.0175C1.6396 14.7182 3.22667 14.3499 4.40258 14.4654C4.80364 14.5049 5.54717 14.8628 5.78357 14.5998C5.88964 14.4823 6.37051 13.4743 6.46143 13.2572C7.66866 10.3814 7.96466 7.67382 10.0397 5.02913C10.6206 4.28881 11.357 3.73827 11.9278 3.02425C11.9611 2.69448 10.862 2.78374 10.5872 2.8138C8.78497 3.01297 5.9543 5.46412 5.87651 7.17682C5.84519 7.85702 6.39779 7.92936 6.38364 8.28825C6.37859 8.41978 5.76437 9.85439 5.6684 9.98122C5.23804 10.5515 4.06415 9.14788 3.8419 8.7843C2.82157 7.11481 3.45801 5.30065 4.71575 3.92898C8.88801 -0.614422 19.2227 1.46844 19.7238 7.73206C20.2026 13.711 14.0745 20.0188 7.54642 16.7024ZM83.6987 15.2809C83.2511 16.5351 81.7075 17.5188 80.3003 17.5169C76.9281 17.5141 78.8384 14.5199 79.4264 12.9049C79.6759 12.2191 80.7569 9.53214 79.2779 9.4861C77.8656 9.44195 77.0322 12.1035 76.7261 13.1182C76.4533 14.0239 76.1967 16.0673 75.7734 16.7418C75.3006 17.4944 73.6408 17.6907 72.9246 17.1646C72.6013 16.9269 72.6185 16.5521 72.2911 16.3501C70.9304 16.771 69.9676 18.0214 68.3795 17.1646C67.9845 16.9513 67.8199 16.367 67.5532 16.3285C66.9561 16.243 66.1954 17.0274 65.5832 17.2229C63.4506 17.904 61.4726 16.599 61.8938 14.4495C62.0252 13.7777 63.3425 11.2157 63.0162 10.7835C62.2777 10.4754 61.8494 10.9113 61.4635 11.4177C60.8321 12.2473 60.4401 13.3944 59.8087 14.2944C58.7035 15.87 56.5063 18.0149 54.2494 17.3394C53.3756 17.0782 53.4928 16.584 53.118 16.3247C52.5866 15.9583 51.8855 16.6704 51.4753 16.879C50.2004 17.5282 49.0801 17.7518 48.0102 16.6592C47.7971 16.4412 47.7375 16.0447 47.3516 16.0588C47.0081 16.072 45.9191 16.957 45.3786 17.128C44.2128 17.4953 43.0146 17.2463 42.5328 16.1161C42.063 15.0141 43.0702 13.8529 43.5097 12.8533C43.7582 12.2858 44.6047 10.3251 44.4562 9.82526C44.2582 9.16104 43.3733 9.52086 43.0156 9.95115C42.4358 10.6473 41.8892 12.1439 41.3589 13.0139C40.3436 14.6787 37.6766 18.2281 35.2409 17.1684C34.6418 16.9072 34.56 16.2326 33.9175 16.2298C33.3599 16.227 32.5385 16.9852 31.9253 17.2059C30.9888 17.5432 29.9372 17.4652 29.2674 16.7108C28.9734 16.3801 28.7774 15.5252 28.3572 15.4867C27.7672 15.4322 26.8035 16.3538 26.2812 16.6545C24.2738 17.81 21.4442 17.9312 20.146 15.7986C18.4913 13.0787 21.8614 7.22192 25.2386 6.85457C29.8756 6.35006 29.4432 11.9532 25.4346 13.1436C24.5021 13.4207 23.1767 13.0158 23.0525 14.1235C22.912 15.3786 24.2233 15.5956 25.2578 15.3279C29.8321 14.1432 29.8847 6.49381 34.9166 7.13454C35.8945 7.25856 35.7693 8.04304 36.14 8.07216C36.4178 8.09377 36.9341 7.61557 37.2301 7.48498C37.913 7.18246 39.6859 6.89121 39.4788 7.97445C38.9909 9.74353 37.5836 12.018 37.325 13.774C37.2149 14.519 37.2967 15.0761 38.2484 14.7266C39.6799 14.2005 40.7608 11.3181 41.1649 10.0169C41.4053 9.23996 41.666 7.23789 42.0014 6.75499C42.2509 6.39704 42.9055 5.97896 43.3622 6.23263C43.6693 6.40268 43.5672 7.671 44.7482 7.85514C45.9261 8.03834 46.8788 7.02744 48.0123 7.54886C48.1274 7.6212 48.091 7.68509 48.0708 7.78655C47.9971 8.16235 47.4758 9.05769 47.299 9.51993C46.8485 10.6962 45.9978 12.795 45.8099 13.96C45.6584 14.8985 46.0231 15.3824 46.9465 14.736C48.3507 13.7524 49.0599 10.1137 49.9761 8.53439C50.6399 7.39009 51.8016 6.84894 53.0361 7.64187C52.3007 9.16386 51.6299 10.7638 51.1884 12.3863C50.9864 13.1304 50.1974 15.4444 51.8521 14.6947C53.2351 14.068 53.9171 10.9705 54.4262 9.66649C54.7788 8.76269 55.1435 7.47652 56.3507 7.32244C58.5136 7.04623 57.3912 8.3277 57.0276 9.36115C56.573 10.652 55.6567 13.4536 56.5487 14.6383C57.071 15.3317 58.1742 14.9051 58.6156 14.3142C59.7835 12.7527 58.554 9.612 59.5693 7.87299C60.2482 6.71083 61.2544 7.48028 61.6231 8.41508C61.8716 9.04736 61.8615 10.2997 62.9526 9.60918C64.0194 8.93368 64.1174 7.16649 65.7388 7.2144C66.9157 7.24916 67.5693 7.60711 68.8978 7.24634C70.7404 6.74559 70.106 5.29407 71.3779 4.76138C71.9083 4.53966 72.5144 4.45416 73.0599 4.64018C74.5076 5.13248 72.8458 6.14431 72.9549 7.06502L74.0742 7.35908C74.4369 8.24315 73.7782 8.04773 73.2893 8.23C72.4144 8.556 71.2961 11.6244 71.1082 12.4963C70.8778 13.5616 70.597 16.0635 72.4568 14.596C73.5762 13.7129 74.1176 11.3407 74.6308 10.0413C74.9268 9.29069 75.4299 8.47802 75.6926 7.74052C76.423 5.69054 76.3169 2.80441 79.2193 2.18904C79.7153 2.08381 81.0175 1.89215 80.7953 2.61932C80.5508 3.4179 79.7315 4.48704 79.3981 5.45566C79.2739 5.81737 78.7041 7.57611 79.0274 7.78186C79.193 7.88708 80.1972 7.23225 80.5144 7.15239C81.2792 6.95792 82.448 7.14018 82.9632 7.7377C84.3866 9.38934 82.3803 11.9156 81.8489 13.5598C81.5812 14.3884 81.5883 15.4284 82.8673 15.0695C83.2845 14.953 84.2018 13.8811 83.7017 15.2828L83.6987 15.2809Z" fill="#F54129"/>
<path d="M67.4875 3.05151C67.4875 3.05151 68.5634 3.57575 68.6675 4.50304C68.8816 6.42431 66.0873 6.80292 65.7944 5.37207C65.6196 4.51713 66.446 4.19582 66.8622 3.88485C67.44 3.45174 67.4885 3.05151 67.4885 3.05151H67.4875Z" fill="#FFDB92"/>
</g>
<defs>
<clipPath id="clip0_268_7397">
<rect width="86" height="20" fill="white"/>
</clipPath>
</defs>
</svg>
