<svg width="24" height="24" viewBox="0 0 24 24" fill="none" xmlns="http://www.w3.org/2000/svg">
<path d="M12 5.50045C12.8506 4.57972 14.4023 3.56375 16.5127 3.92232L16.8164 3.9819C18.3004 4.31239 19.2677 5.13053 19.8555 6.09127C20.4676 7.0922 20.6503 8.21551 20.6504 9.04439C20.6504 9.85366 20.5961 11.3471 19.5 13.2846C18.4123 15.207 16.3257 17.5186 12.3574 20.0473C12.2556 20.1122 12.1428 20.1423 12.0303 20.146C12.0202 20.1466 12.0101 20.1478 12 20.1479C11.9895 20.1478 11.9792 20.1466 11.9688 20.146C11.8566 20.1421 11.7441 20.112 11.6426 20.0473C7.67427 17.5186 5.58772 15.207 4.5 13.2846C3.40388 11.3471 3.34962 9.85366 3.34961 9.04439C3.34969 8.21551 3.53243 7.0922 4.14453 6.09127C4.77143 5.06649 5.83017 4.20397 7.4873 3.92232L7.73828 3.88619C9.72117 3.64518 11.1834 4.61657 12 5.50045Z" fill="#F54129"/>
</svg>
