<svg width="16" height="16" viewBox="0 0 16 16" fill="none" stroke="current" xmlns="http://www.w3.org/2000/svg">
<path d="M8.14258 2C9.24455 2 10.3 2.42879 11.0762 3.18945C11.852 3.94974 12.2861 4.97905 12.2861 6.0498C12.2861 6.79971 12.0276 7.67915 11.6055 8.60254C11.1865 9.51904 10.6234 10.4426 10.0527 11.2715C9.48302 12.099 8.91211 12.8232 8.4834 13.3408C8.35693 13.4935 8.24022 13.6256 8.14258 13.7393C8.04503 13.6258 7.92904 13.4933 7.80273 13.3408C7.37406 12.8232 6.80307 12.0989 6.2334 11.2715C5.66277 10.4427 5.09967 9.51899 4.68066 8.60254C4.25854 7.67915 4 6.79971 4 6.0498C4.00005 4.97905 4.43415 3.94974 5.20996 3.18945C5.98607 2.42898 7.04081 2.00007 8.14258 2ZM8.14258 3.9248C7.57352 3.92488 7.02553 4.14665 6.62012 4.54395C6.21447 4.94158 5.98443 5.48308 5.98438 6.0498C5.98438 6.61669 6.2143 7.15894 6.62012 7.55664C7.02552 7.95388 7.57357 8.17473 8.14258 8.1748C8.42461 8.1748 8.70473 8.12063 8.96582 8.01465C9.22665 7.90873 9.46434 7.75322 9.66504 7.55664C9.86591 7.35979 10.0265 7.12475 10.1357 6.86621C10.2449 6.60777 10.3008 6.33014 10.3008 6.0498C10.3007 5.48299 10.0708 4.9416 9.66504 4.54395C9.25957 4.14664 8.71169 3.9248 8.14258 3.9248Z" />
</svg>
