<svg width="72" height="72" viewBox="0 0 72 72" fill="none" xmlns="http://www.w3.org/2000/svg">
<circle cx="36" cy="36" r="36" fill="#FFD5CE"/>
<path d="M37.5822 17.885H34.4257V29.3945H37.5822V17.885Z" fill="#FD725C"/>
<path d="M51.0714 39.0737C50.7997 38.0403 50.0965 37.1884 49.1775 36.5731C48.2585 35.9578 47.6352 35.1137 47.3156 34.1355C46.908 32.8891 46.013 32.0766 44.263 31.2167C42.2172 30.207 41.6259 30.6961 41.0665 29.4733C40.7628 28.8107 40.1715 27.3513 37.4785 26.5151C36.5276 26.2154 35.4807 26.2154 34.5298 26.5151C31.8368 27.3513 31.2374 28.8107 30.9418 29.4733C30.3824 30.6961 29.791 30.207 27.7453 31.2167C26.0032 32.0766 25.1082 32.8891 24.6927 34.1355C24.3731 35.1137 23.7258 35.9735 22.8308 36.5731C21.9358 37.1726 21.2006 38.0403 20.9369 39.0737C20.0978 42.2923 22.3673 43.7359 22.5511 43.9489C22.8068 44.2408 23.8456 47.5145 24.3011 49.2895C24.7486 51.0328 25.7315 52.3423 27.5296 52.8235C27.7453 52.8788 31.9646 52.9182 36.0081 52.9419C40.0516 52.9182 44.271 52.8788 44.4867 52.8235C46.2847 52.3423 47.2596 51.0328 47.7151 49.2895C48.1706 47.5224 49.2095 44.2487 49.4652 43.9489C49.649 43.7359 51.9185 42.3002 51.0794 39.0737H51.0714Z" fill="#FD725C"/>
<path d="M36 49.5339C45.3564 49.5339 52.9412 45.0273 52.9412 39.4681C52.9412 33.9089 45.3564 29.4022 36 29.4022C26.6437 29.4022 19.0588 33.9089 19.0588 39.4681C19.0588 45.0273 26.6437 49.5339 36 49.5339Z" fill="#FD725C"/>
<path d="M36 36.8808C41.3226 36.8808 45.6373 34.3167 45.6373 31.1537C45.6373 27.9907 41.3226 25.4266 36 25.4266C30.6775 25.4266 26.3628 27.9907 26.3628 31.1537C26.3628 34.3167 30.6775 36.8808 36 36.8808Z" fill="#FD725C"/>
<path d="M39.524 20.3462C39.524 23.0126 37.798 24.4956 35.976 24.4956C34.3857 24.4956 32.4839 23.0441 32.4839 20.3778C32.4839 17.7114 35.976 14.8242 35.976 14.8242C35.976 14.8242 39.524 17.672 39.524 20.3462Z" fill="#FD725C"/>
</svg>
