<svg width="48" height="48" viewBox="0 0 48 48" fill="none" xmlns="http://www.w3.org/2000/svg">
<circle cx="24" cy="24" r="24" fill="#FFD5CE"/>
<path d="M25.0548 11.9233H22.9504V19.5963H25.0548V11.9233Z" fill="#FD725C"/>
<path d="M34.0476 26.0492C33.8664 25.3602 33.3976 24.7923 32.785 24.382C32.1723 23.9718 31.7568 23.4091 31.5437 22.757C31.272 21.9261 30.6753 21.3844 29.5086 20.8111C28.1448 20.138 27.7506 20.4641 27.3777 19.6489C27.1752 19.2071 26.781 18.2342 24.9856 17.6768C24.3517 17.4769 23.6538 17.4769 23.0198 17.6768C21.2245 18.2342 20.8249 19.2071 20.6278 19.6489C20.2549 20.4641 19.8607 20.138 18.4969 20.8111C17.3355 21.3844 16.7388 21.9261 16.4618 22.757C16.2487 23.4091 15.8172 23.9824 15.2205 24.382C14.6238 24.7817 14.1337 25.3602 13.9579 26.0492C13.3985 28.1949 14.9115 29.1573 15.034 29.2993C15.2045 29.4938 15.8971 31.6763 16.2007 32.8596C16.4991 34.0219 17.1543 34.8949 18.353 35.2157C18.4969 35.2525 21.3097 35.2788 24.0054 35.2946C26.7011 35.2788 29.5139 35.2525 29.6578 35.2157C30.8565 34.8949 31.5064 34.0219 31.8101 32.8596C32.1137 31.6816 32.8063 29.4991 32.9768 29.2993C33.0993 29.1573 34.6123 28.2001 34.0529 26.0492H34.0476Z" fill="#FD725C"/>
<path d="M24 33.0226C30.2376 33.0226 35.2941 30.0182 35.2941 26.312C35.2941 22.6059 30.2376 19.6015 24 19.6015C17.7624 19.6015 12.7059 22.6059 12.7059 26.312C12.7059 30.0182 17.7624 33.0226 24 33.0226Z" fill="#FD725C"/>
<path d="M24 24.5872C27.5484 24.5872 30.4249 22.8778 30.4249 20.7691C30.4249 18.6605 27.5484 16.951 24 16.951C20.4517 16.951 17.5751 18.6605 17.5751 20.7691C17.5751 22.8778 20.4517 24.5872 24 24.5872Z" fill="#FD725C"/>
<path d="M26.3493 13.5641C26.3493 15.3417 25.1986 16.3304 23.984 16.3304C22.9238 16.3304 21.6559 15.3627 21.6559 13.5852C21.6559 11.8076 23.984 9.88281 23.984 9.88281C23.984 9.88281 26.3493 11.7813 26.3493 13.5641Z" fill="#FD725C"/>
</svg>
