<svg width="36" height="36" viewBox="0 0 36 36" fill="none" xmlns="http://www.w3.org/2000/svg">
<circle cx="18" cy="18" r="18" fill="#FFBEB5"/>
<path d="M18.7911 8.94214H17.2128V14.6969H18.7911V8.94214Z" fill="#FD725C"/>
<path d="M25.5357 19.5365C25.3998 19.0198 25.0482 18.5938 24.5887 18.2862C24.1293 17.9785 23.8176 17.5565 23.6578 17.0674C23.454 16.4442 23.0065 16.0379 22.1315 15.608C21.1086 15.1031 20.8129 15.3477 20.5333 14.7363C20.3814 14.405 20.0858 13.6753 18.7392 13.2572C18.2638 13.1073 17.7404 13.1073 17.2649 13.2572C15.9184 13.6753 15.6187 14.405 15.4709 14.7363C15.1912 15.3477 14.8955 15.1031 13.8727 15.608C13.0016 16.0379 12.5541 16.4442 12.3464 17.0674C12.1865 17.5565 11.8629 17.9864 11.4154 18.2862C10.9679 18.5859 10.6003 19.0198 10.4684 19.5365C10.0489 21.1458 11.1836 21.8676 11.2755 21.9741C11.4034 22.12 11.9228 23.7569 12.1506 24.6444C12.3743 25.516 12.8658 26.1708 13.7648 26.4114C13.8727 26.439 15.9823 26.4587 18.0041 26.4706C20.0258 26.4587 22.1355 26.439 22.2434 26.4114C23.1424 26.1708 23.6298 25.516 23.8576 24.6444C24.0853 23.7608 24.6047 22.124 24.7326 21.9741C24.8245 21.8676 25.9592 21.1497 25.5397 19.5365H25.5357Z" fill="#FD725C"/>
<path d="M18 24.7666C22.6782 24.7666 26.4706 22.5133 26.4706 19.7337C26.4706 16.9541 22.6782 14.7008 18 14.7008C13.3218 14.7008 9.52942 16.9541 9.52942 19.7337C9.52942 22.5133 13.3218 24.7666 18 24.7666Z" fill="#FD725C"/>
<path d="M18 18.44C20.6613 18.44 22.8187 17.158 22.8187 15.5765C22.8187 13.995 20.6613 12.7129 18 12.7129C15.3388 12.7129 13.1814 13.995 13.1814 15.5765C13.1814 17.158 15.3388 18.44 18 18.44Z" fill="#FD725C"/>
<path d="M19.762 10.1727C19.762 11.5059 18.899 12.2474 17.988 12.2474C17.1929 12.2474 16.2419 11.5217 16.2419 10.1885C16.2419 8.85535 17.988 7.41174 17.988 7.41174C17.988 7.41174 19.762 8.83563 19.762 10.1727Z" fill="#FD725C"/>
</svg>
