<svg width="40" height="40" viewBox="0 0 40 40" fill="none" xmlns="http://www.w3.org/2000/svg">
<circle cx="20" cy="20" r="20" fill="#FFD5CE"/>
<path d="M20.879 9.93482H19.1254V16.3289H20.879V9.93482Z" fill="#FD725C"/>
<path d="M28.373 21.7063C28.222 21.1322 27.8314 20.6589 27.3208 20.3171C26.8103 19.9752 26.464 19.5063 26.2864 18.9629C26.06 18.2704 25.5628 17.819 24.5905 17.3413C23.454 16.7804 23.1255 17.0521 22.8147 16.3728C22.646 16.0046 22.3175 15.1939 20.8214 14.7293C20.2931 14.5628 19.7115 14.5628 19.1832 14.7293C17.6871 15.1939 17.3541 16.0046 17.1899 16.3728C16.8791 17.0521 16.5506 16.7804 15.4141 17.3413C14.4462 17.819 13.949 18.2704 13.7182 18.9629C13.5406 19.5063 13.181 19.984 12.6838 20.3171C12.1865 20.6501 11.7781 21.1322 11.6316 21.7063C11.1654 23.4944 12.4263 24.2964 12.5284 24.4147C12.6704 24.5769 13.2476 26.3957 13.5006 27.3817C13.7492 28.3503 14.2953 29.0778 15.2942 29.3451C15.4141 29.3758 17.7581 29.3977 20.0045 29.4108C22.2509 29.3977 24.595 29.3758 24.7148 29.3451C25.7137 29.0778 26.2553 28.3503 26.5084 27.3817C26.7614 26.4 27.3386 24.5813 27.4806 24.4147C27.5828 24.2964 28.8436 23.4988 28.3774 21.7063H28.373Z" fill="#FD725C"/>
<path d="M20 27.5175C25.198 27.5175 29.4118 25.0139 29.4118 21.9254C29.4118 18.837 25.198 16.3333 20 16.3333C14.802 16.3333 10.5882 18.837 10.5882 21.9254C10.5882 25.0139 14.802 27.5175 20 27.5175Z" fill="#FD725C"/>
<path d="M20 20.488C22.957 20.488 25.3541 19.0635 25.3541 17.3063C25.3541 15.5491 22.957 14.1246 20 14.1246C17.0431 14.1246 14.646 15.5491 14.646 17.3063C14.646 19.0635 17.0431 20.488 20 20.488Z" fill="#FD725C"/>
<path d="M21.9578 11.3022C21.9578 12.7835 20.9989 13.6074 19.9866 13.6074C19.1032 13.6074 18.0466 12.801 18.0466 11.3197C18.0466 9.83839 19.9866 8.23438 19.9866 8.23438C19.9866 8.23438 21.9578 9.81647 21.9578 11.3022Z" fill="#FD725C"/>
</svg>
