<svg width="20" height="20" viewBox="0 0 20 20" fill="none" xmlns="http://www.w3.org/2000/svg">
<path d="M16.01 7.79399L18.3224 8.17199C18.414 8.18708 18.4972 8.23422 18.5572 8.305C18.6172 8.37578 18.6501 8.46559 18.65 8.55839V10.71C18.65 10.8021 18.6174 10.8912 18.5582 10.9616C18.4989 11.0321 18.4167 11.0794 18.326 11.0952L16.01 11.502C15.8764 11.9676 15.6928 12.412 15.4592 12.8352L16.8284 14.736C16.883 14.8114 16.9089 14.9039 16.9014 14.9967C16.8939 15.0895 16.8536 15.1767 16.7876 15.2424L15.266 16.764C15.201 16.8293 15.115 16.8695 15.0233 16.8776C14.9315 16.8857 14.8398 16.8612 14.7644 16.8084L12.8444 15.4608C12.4192 15.6968 11.9693 15.8852 11.5028 16.0224L11.0948 18.3276C11.0787 18.4183 11.0311 18.5004 10.9604 18.5594C10.8897 18.6185 10.8005 18.6507 10.7084 18.6504H8.55799C8.46551 18.6505 8.37601 18.6177 8.30545 18.5579C8.23489 18.4981 8.18788 18.4152 8.17279 18.324L7.78999 16.0308C7.32156 15.8951 6.8696 15.708 6.44239 15.4728L4.53679 16.8084C4.46134 16.8612 4.36966 16.8857 4.2779 16.8776C4.18614 16.8695 4.10019 16.8293 4.03519 16.764L2.51239 15.2424C2.44772 15.1765 2.40813 15.09 2.40046 14.998C2.39279 14.9059 2.41753 14.8141 2.47039 14.7384L3.81799 12.8544C3.58022 12.4252 3.39105 11.9708 3.25399 11.4996L0.972794 11.0952C0.882315 11.0791 0.80038 11.0317 0.741356 10.9613C0.682332 10.8908 0.649988 10.8019 0.649994 10.71V8.55839C0.649994 8.36639 0.787994 8.20319 0.977594 8.17199L3.25879 7.79159C3.39719 7.31959 3.58519 6.86839 3.82279 6.43799L2.49079 4.53479C2.43827 4.45944 2.41394 4.36801 2.42206 4.27652C2.43018 4.18503 2.47023 4.09932 2.53519 4.03439L4.05799 2.51399C4.12344 2.44847 4.21001 2.40829 4.30229 2.40059C4.39458 2.3929 4.48661 2.4182 4.56199 2.47199L6.45199 3.82199C6.87839 3.58839 7.32679 3.40439 7.79719 3.26999L8.17159 0.977991C8.18668 0.886428 8.23382 0.803211 8.30461 0.7432C8.37539 0.68319 8.4652 0.650295 8.55799 0.650391H10.7096C10.9004 0.650391 11.0624 0.787191 11.096 0.974391L11.4992 3.27839C11.9672 3.41359 12.4152 3.59959 12.8432 3.83639L14.7368 2.47439C14.8121 2.41965 14.9045 2.39357 14.9973 2.40082C15.0901 2.40808 15.1773 2.44821 15.2432 2.51399L16.7648 4.03559C16.8299 4.10074 16.8699 4.18676 16.8778 4.27852C16.8857 4.37027 16.861 4.46187 16.808 4.53719L15.458 6.46079C15.69 6.88479 15.874 7.32879 16.01 7.79279V7.79399ZM6.90919 9.65039C6.90919 10.377 7.19783 11.0738 7.7116 11.5876C8.22538 12.1014 8.92221 12.39 9.64879 12.39C10.3754 12.39 11.0722 12.1014 11.586 11.5876C12.0998 11.0738 12.3884 10.377 12.3884 9.65039C12.3884 8.9238 12.0998 8.22697 11.586 7.7132C11.0722 7.19943 10.3754 6.91079 9.64879 6.91079C8.92221 6.91079 8.22538 7.19943 7.7116 7.7132C7.19783 8.22697 6.90919 8.9238 6.90919 9.65039Z" stroke="black" stroke-width="1.3"/>
</svg>
