<svg width="24" height="24" viewBox="0 0 24 24" fill="none" xmlns="http://www.w3.org/2000/svg">
<path d="M12.1338 6.95044C15.0945 6.95044 16.8849 8.32453 17.9541 9.69946C18.4941 10.3939 18.851 11.0913 19.0723 11.6155C19.1825 11.8767 19.2583 12.0926 19.3057 12.2405C19.3103 12.2551 19.3142 12.2692 19.3184 12.2825C19.3153 12.2908 19.3129 12.3 19.3096 12.3088C19.2596 12.4425 19.1805 12.6388 19.0654 12.8762C18.8345 13.3525 18.4638 13.9879 17.9102 14.6223C16.8143 15.878 14.9848 17.1497 12 17.1497C9.01521 17.1497 7.1857 15.878 6.08984 14.6223C5.53618 13.9879 5.16549 13.3525 4.93457 12.8762C4.81947 12.6388 4.74042 12.4425 4.69043 12.3088C4.68885 12.3046 4.68707 12.3002 4.68555 12.2961C4.68915 12.2861 4.69333 12.2757 4.69727 12.2649C4.7515 12.1164 4.83767 11.9 4.95996 11.6379C5.20548 11.1119 5.59499 10.4111 6.16895 9.71313C7.30803 8.32795 9.16986 6.9505 12.1338 6.95044Z" stroke="black" stroke-width="1.3" stroke-linejoin="round"/>
<circle cx="12" cy="12" r="2.4" stroke="black" stroke-width="1.2"/>
</svg>
