<svg width="24" height="24" viewBox="0 0 24 24" fill="none" xmlns="http://www.w3.org/2000/svg">
<path d="M12.1338 7.15039C15.0945 7.15039 16.8849 8.52448 17.9541 9.89941C18.4941 10.5939 18.851 11.2913 19.0723 11.8154C19.1825 12.0766 19.2583 12.2925 19.3057 12.4404C19.3103 12.455 19.3142 12.4692 19.3184 12.4824C19.3153 12.4907 19.3129 12.4999 19.3096 12.5088C19.2596 12.6424 19.1805 12.8388 19.0654 13.0762C18.8345 13.5524 18.4638 14.1878 17.9102 14.8223C16.8143 16.0779 14.9848 17.3496 12 17.3496C9.01521 17.3496 7.1857 16.0779 6.08984 14.8223C5.53618 14.1878 5.16549 13.5524 4.93457 13.0762C4.81947 12.8388 4.74042 12.6424 4.69043 12.5088C4.68885 12.5046 4.68707 12.5002 4.68555 12.4961C4.68915 12.4861 4.69333 12.4756 4.69727 12.4648C4.7515 12.3163 4.83767 12.0999 4.95996 11.8379C5.20548 11.3119 5.59499 10.6111 6.16895 9.91309C7.30803 8.5279 9.16986 7.15045 12.1338 7.15039Z" stroke="black" stroke-width="1.3" stroke-linejoin="round"/>
<circle cx="12" cy="12.2" r="2.4" stroke="black" stroke-width="1.2"/>
<path d="M18 6.5L6 18.5" stroke="black" stroke-width="1.3" stroke-linecap="round"/>
</svg>
