<svg width="14" height="14" viewBox="0 0 14 14" fill="none" xmlns="http://www.w3.org/2000/svg">
<path d="M6.30027 0.685356C6.68905 0.304565 7.31095 0.304565 7.69973 0.685356L8.7754 1.73892C8.95974 1.91948 9.20673 2.02178 9.46475 2.02446L10.9703 2.04009C11.5145 2.04574 11.9543 2.48549 11.9599 3.02966L11.9755 4.53525C11.9782 4.79327 12.0805 5.04026 12.2611 5.2246L13.3146 6.30027C13.6954 6.68905 13.6954 7.31095 13.3146 7.69973L12.2611 8.7754C12.0805 8.95974 11.9782 9.20673 11.9755 9.46475L11.9599 10.9703C11.9543 11.5145 11.5145 11.9543 10.9703 11.9599L9.46475 11.9755C9.20673 11.9782 8.95974 12.0805 8.7754 12.2611L7.69973 13.3146C7.31095 13.6954 6.68905 13.6954 6.30027 13.3146L5.2246 12.2611C5.04026 12.0805 4.79327 11.9782 4.53525 11.9755L3.02966 11.9599C2.48549 11.9543 2.04574 11.5145 2.04009 10.9703L2.02446 9.46475C2.02178 9.20673 1.91948 8.95974 1.73892 8.7754L0.685356 7.69973C0.304565 7.31095 0.304565 6.68905 0.685356 6.30027L1.73892 5.2246C1.91948 5.04027 2.02178 4.79327 2.02446 4.53525L2.04009 3.02966C2.04574 2.48549 2.48549 2.04574 3.02966 2.04009L4.53525 2.02446C4.79327 2.02178 5.04026 1.91948 5.2246 1.73892L6.30027 0.685356Z" fill="#FF9892"/>
<path d="M5.20001 7.30882L6.40001 8.5L9.20001 5.5" stroke="white" stroke-width="0.8" stroke-linecap="round" stroke-linejoin="round"/>
</svg>
